<svg xmlns="http://www.w3.org/2000/svg" fill="none" viewBox="0 0 128 128"><g clip-path="url(#a)"><path fill="#C83E2F" d="M38.28 127.6A38.28 38.28 0 0 1 0 89.32V38.28A38.28 38.28 0 0 1 38.28 0h51.04a38.28 38.28 0 0 1 38.28 38.28v51.04a38.28 38.28 0 0 1-38.28 38.28H38.28Z"/><g clip-path="url(#b)"><g fill="#fff" clip-path="url(#c)"><path d="M30.86 84.17h65.29v-3.35H30.86v3.35Zm48.67-25.52h-2.97s-1.62 2.6-5.91 5.1c-1.15.67-5.37-8.06-5.37-8.06h-2.96s-4.22 8.75-5.37 8.07c-4.3-2.5-5.91-5.1-5.91-5.1h-2.97c-12.07 15.57-17.8-3.57-17.8-3.57h-2.38c.29 9.89 2.97 22.17 2.97 22.17h65.88s2.68-12.28 2.97-22.17h-2.38s-5.73 19.14-17.8 3.56ZM28.49 52.1a2.95 2.95 0 1 0 0-5.9 2.95 2.95 0 0 0 0 5.9Z"/><path d="M49.26 55.12a3.59 3.59 0 1 0 0-7.18 3.59 3.59 0 0 0 0 7.18Zm13.37-5.92c.05 1.37.17 2.51.38 2.72.54.56 1.06.53 1.57 0 .19-.2.31-1.35.36-2.72 1.46-.04 2.71-.18 2.91-.41.51-.58.51-1.25 0-1.83-.2-.23-1.45-.37-2.9-.42-.06-1.36-.17-2.5-.37-2.71-.53-.54-1.05-.54-1.57 0-.2.2-.33 1.35-.38 2.71-1.45.05-2.7.19-2.9.42-.52.6-.5 1.27 0 1.83.2.22 1.44.36 2.9.4Zm15.71 5.92a3.59 3.59 0 1 0 0-7.18 3.59 3.59 0 0 0 0 7.18Zm20.77-3.02a2.95 2.95 0 1 0 0-5.9 2.95 2.95 0 0 0 0 5.9Z"/></g></g></g><defs><clipPath id="a"><path fill="#fff" d="M0 0h127.6v127.6H0z"/></clipPath><clipPath id="b"><path fill="#fff" d="M25.52 43.43h76.56v40.75H25.52z"/></clipPath><clipPath id="c"><path fill="#fff" d="M25.52 43.43h76.56v40.75H25.52z"/></clipPath></defs></svg>