<svg viewBox="0 0 24 24" fill="none" xmlns="http://www.w3.org/2000/svg">
<path d="M12 24C18.6274 24 24 18.6274 24 12C24 5.37258 18.6274 0 12 0C5.37258 0 0 5.37258 0 12C0 18.6274 5.37258 24 12 24Z" fill="#1F1F22"/>
<path fill-rule="evenodd" clip-rule="evenodd" d="M16.6849 17.467C17.8019 16.5096 18.5989 15.2331 18.9685 13.8091C19.3381 12.3851 19.2626 10.8821 18.7522 9.50232C18.2418 8.12253 17.321 6.9322 16.1137 6.09154C14.9064 5.25087 13.4706 4.80021 11.9994 4.80021C10.5283 4.80021 9.0924 5.25087 7.88509 6.09154C6.67779 6.9322 5.75698 8.12253 5.24659 9.50232C4.7362 10.8821 4.66073 12.3851 5.03034 13.8091C5.39995 15.2331 6.19689 16.5096 7.31391 17.467L5.75091 19.289C4.69867 18.3885 3.85419 17.2705 3.27568 16.0122C2.69717 14.7538 2.39838 13.385 2.39991 12C2.39991 9.45395 3.41133 7.01215 5.21168 5.2118C7.01203 3.41145 9.45383 2.40002 11.9999 2.40002C13.2606 2.40002 14.5089 2.64834 15.6737 3.13078C16.8384 3.61323 17.8967 4.32036 18.7881 5.2118C19.6796 6.10324 20.3867 7.16154 20.8692 8.32626C21.3516 9.49099 21.5999 10.7393 21.5999 12C21.6015 13.3852 21.3026 14.7543 20.7239 16.0129C20.1452 17.2714 19.3005 18.3895 18.2479 19.29L16.6849 17.467Z" fill="#CDCDCD" fill-opacity="0.1"/>
<path d="M11.956 14.976C11.86 14.976 11.7613 14.9707 11.66 14.96C11.564 14.944 11.468 14.9173 11.372 14.88C11.228 14.8213 11.0893 14.744 10.956 14.648C10.828 14.5467 10.7107 14.4347 10.604 14.312C10.348 14.024 10.1533 13.6853 10.02 13.296C9.88667 12.9013 9.82 12.5013 9.82 12.096C9.82 11.5413 9.92667 11.0053 10.14 10.488C10.1773 10.3973 10.2253 10.3013 10.284 10.2C10.348 10.0987 10.4173 10.0027 10.492 9.912C10.572 9.816 10.652 9.73067 10.732 9.656C10.8173 9.58133 10.9027 9.52533 10.988 9.488C11.1053 9.43467 11.2333 9.38133 11.372 9.328C11.5427 9.27467 11.7347 9.25067 11.948 9.256C12.1613 9.26133 12.356 9.28533 12.532 9.328C12.7773 9.38667 12.988 9.49333 13.164 9.648C13.34 9.79733 13.4893 9.97867 13.612 10.192C13.7347 10.4 13.8307 10.6293 13.9 10.88C13.9693 11.1253 14.02 11.376 14.052 11.632C14.0733 11.8027 14.0813 11.9733 14.076 12.144C14.0707 12.3093 14.0573 12.4773 14.036 12.648C14.0147 12.8027 13.988 12.9573 13.956 13.112C13.9293 13.2667 13.892 13.416 13.844 13.56C13.796 13.704 13.7347 13.8427 13.66 13.976C13.5853 14.104 13.492 14.224 13.38 14.336C13.1773 14.5333 12.956 14.688 12.716 14.8C12.4813 14.9067 12.228 14.9653 11.956 14.976ZM11.948 10.312C11.8733 10.312 11.7987 10.32 11.724 10.336C11.6547 10.3467 11.588 10.3733 11.524 10.416C11.4493 10.464 11.3827 10.5227 11.324 10.592C11.2653 10.6613 11.2147 10.7333 11.172 10.808C11.06 11 10.9827 11.2053 10.94 11.424C10.8973 11.6427 10.876 11.864 10.876 12.088C10.876 12.3173 10.9 12.5547 10.948 12.8C11.0013 13.0453 11.0947 13.2693 11.228 13.472C11.292 13.568 11.3667 13.6533 11.452 13.728C11.5427 13.7973 11.6467 13.848 11.764 13.88C11.8707 13.9067 11.9773 13.9147 12.084 13.904C12.196 13.8933 12.3 13.8587 12.396 13.8C12.5507 13.704 12.6733 13.576 12.764 13.416C12.8547 13.256 12.9213 13.0827 12.964 12.896C13.012 12.7093 13.0387 12.5173 13.044 12.32C13.0547 12.1227 13.0547 11.944 13.044 11.784C13.0333 11.624 13.0067 11.456 12.964 11.28C12.9213 11.104 12.8573 10.944 12.772 10.8C12.692 10.656 12.5827 10.5387 12.444 10.448C12.3107 10.352 12.1453 10.3067 11.948 10.312Z" fill="#EEEEEE"/>
</svg>
