<svg width="30" height="34" viewBox="0 0 30 34" fill="none" xmlns="http://www.w3.org/2000/svg">
<g clip-path="url(#clip0_122_56)">
<path d="M14.96 4.731L25.0777 4.71931C26.1832 4.71804 27.08 5.61384 27.08 6.71931V23.3954C27.08 24.119 26.6898 24.7858 26.0585 25.1394C22.4586 27.1556 18.3752 29.4331 15.9006 30.8162C15.306 31.1485 14.582 31.1519 13.994 30.808V30.808C12.602 30.025 10.727 28.97 8.865 27.93L3.89151 25.14C3.26061 24.7861 2.87 24.1191 2.87 23.3957V6.731C2.87 5.62643 3.76543 4.731 4.87 4.731H14.96ZM20.3189 1.13511C16.7854 0.713192 13.2144 0.711889 9.68067 1.13123L1.76432 2.07063C0.757974 2.19005 0 3.04329 0 4.0567V25.0421C0 25.7917 0.413771 26.4756 1.08043 26.8183C4.5292 28.5912 15.0468 34 15 34C15.0351 34 25.4246 28.5947 28.8359 26.8195C29.4975 26.4752 29.907 25.7942 29.907 25.0484V4.05539C29.907 3.04255 29.1498 2.18959 28.1441 2.0695L20.3189 1.13511Z" fill="url(#paint0_linear_122_56)"/>
<path d="M18.1571 16.006L15.9279 9.6469C15.6169 8.75966 14.3645 8.75301 14.0441 9.63689L11.7351 16.006L8.95647 13.9486C8.2382 13.4168 7.2362 14.0225 7.37323 14.9056L8.4077 21.5733C8.4833 22.0606 8.90279 22.42 9.39588 22.42H20.5063C20.9954 22.42 21.4128 22.0662 21.4928 21.5837L22.6017 14.9008C22.7479 14.0192 21.7526 13.403 21.0287 13.9271L18.1571 16.006ZM21.3541 20.638H8.26259L8.0415 19.213H21.8862L21.6497 20.638H21.3541Z" fill="white"/>
</g>
<defs>
<linearGradient id="paint0_linear_122_56" x1="1495.35" y1="-1.83585e-07" x2="1495.35" y2="3464.2" gradientUnits="userSpaceOnUse">
<stop stop-color="white"/>
</linearGradient>
<clipPath id="clip0_122_56">
<rect width="30" height="34" fill="white"/>
</clipPath>
</defs>
</svg>
